<?xml version="1.0" encoding="UTF-8"?>
<svg xmlns="http://www.w3.org/2000/svg" viewBox="0 0 2000 620" width="2000" height="620"><g transform="translate(70.0,91.8) scale(0.20994)"><g transform="translate(7.200000,2071.200000) scale(0.100000,-0.100000)" fill="#0B132B"><path d="M21834 15564 c-5 -2 -746 -5 -1645 -7 -1372 -2 -1638 -4 -1659 -16
-33 -18 -972 -962 -1525 -1531 -242 -250 -564 -580 -716 -735 -627 -637 -844
-860 -1014 -1040 -98 -104 -413 -426 -700 -715 -286 -289 -586 -595 -667 -680
-225 -240 -283 -299 -666 -685 -672 -678 -691 -699 -622 -723 42 -15 3256 -17
3310 -2 41 11 254 217 759 736 225 231 1583 1602 2141 2163 195 196 420 424
500 506 181 188 691 706 1264 1285 243 245 565 573 716 730 151 157 355 365
452 463 183 183 201 210 166 245 -11 11 -71 15 -94 6z"/><path d="M9145 15286 c-291 -13 -660 -29 -820 -36 -159 -6 -348 -15 -420 -20
-225 -16 -663 -39 -1140 -60 -747 -32 -785 -38 -920 -135 -172 -122 -301 -406
-240 -526 53 -102 179 -238 317 -344 141 -107 461 -266 683 -341 183 -61 451
-79 810 -54 440 30 585 42 720 60 83 11 281 34 440 50 160 17 324 34 365 40
92 12 380 36 595 50 253 17 728 14 870 -5 378 -49 636 -127 930 -280 284 -147
404 -231 685 -477 211 -184 217 -195 155 -282 -73 -102 -40 -149 88 -128 104
17 830 27 994 13 171 -14 434 -77 558 -133 148 -68 345 -220 402 -312 61 -96
75 -114 98 -124 58 -27 62 -15 70 208 10 275 -32 480 -133 655 -62 106 -224
271 -351 355 -173 115 -456 223 -652 250 -196 26 -213 41 -234 210 -29 226
-221 534 -448 718 -226 184 -580 354 -982 472 -71 21 -146 43 -165 49 -49 16
-349 77 -440 90 -409 59 -1038 72 -1835 37z"/><path d="M5058 13589 c-44 -25 -2 -87 105 -156 143 -91 379 -334 519 -532 80
-113 140 -244 203 -438 33 -101 46 -440 25 -640 -10 -97 -79 -324 -140 -458
-157 -351 -463 -737 -796 -1004 -99 -80 -156 -144 -148 -165 8 -20 46 -30 82
-22 15 3 97 10 182 16 194 12 527 63 578 89 21 11 64 27 97 36 63 17 280 119
290 136 4 5 25 19 48 30 23 12 56 33 74 48 17 14 61 51 98 81 108 88 302 336
370 470 10 19 26 45 36 58 10 13 25 47 35 75 9 29 27 70 40 92 12 22 29 70 38
106 8 36 26 96 41 134 26 70 45 193 66 424 20 218 -16 612 -64 708 -14 27 -32
73 -41 104 -8 31 -24 67 -34 80 -11 13 -27 39 -36 57 -78 152 -403 391 -636
467 -30 10 -78 29 -107 41 -126 56 -429 120 -678 144 -60 6 -128 15 -150 20
-51 12 -76 12 -97 -1z"/><path d="M7371 11827 c-12 -15 -23 -64 -71 -312 -31 -165 -100 -401 -150 -515
-16 -36 -33 -83 -39 -105 -6 -22 -20 -56 -32 -75 -12 -19 -30 -59 -40 -89 -11
-30 -32 -75 -48 -100 -16 -25 -34 -64 -41 -86 -7 -22 -25 -62 -40 -90 -15 -27
-33 -68 -40 -90 -7 -22 -23 -58 -35 -80 -13 -22 -31 -65 -40 -95 -10 -30 -28
-75 -40 -100 -13 -25 -30 -68 -38 -96 -8 -27 -28 -77 -45 -110 -16 -32 -37
-86 -47 -119 -9 -33 -25 -76 -36 -97 -11 -21 -26 -68 -35 -105 -8 -38 -28
-106 -44 -153 -21 -59 -39 -150 -60 -299 -53 -373 -60 -632 -25 -921 13 -109
31 -281 55 -540 6 -63 22 -169 35 -235 13 -66 32 -176 41 -245 9 -69 27 -162
40 -208 13 -45 31 -126 39 -180 9 -53 27 -131 40 -172 13 -41 33 -115 44 -165
10 -49 28 -112 39 -140 11 -27 27 -86 36 -129 9 -43 27 -104 41 -135 13 -31
31 -84 40 -119 9 -35 29 -89 44 -120 16 -31 32 -70 36 -87 7 -33 98 -200 157
-288 111 -164 320 -316 583 -422 44 -18 170 -70 280 -115 110 -45 229 -92 265
-105 36 -12 103 -39 149 -59 47 -20 139 -57 205 -81 67 -24 155 -57 196 -74
110 -45 399 -156 520 -201 58 -21 164 -62 235 -90 72 -28 202 -77 290 -110 88
-32 196 -72 240 -90 44 -17 161 -61 260 -96 99 -36 266 -96 370 -135 105 -38
233 -85 285 -104 52 -19 174 -64 270 -99 96 -36 225 -83 285 -105 131 -47 280
-103 430 -161 61 -23 156 -59 213 -81 115 -43 260 -99 420 -160 59 -23 141
-53 182 -66 41 -14 111 -40 155 -58 44 -18 100 -38 125 -45 25 -7 63 -21 85
-33 22 -11 76 -32 120 -48 114 -39 259 -92 335 -122 36 -14 92 -34 125 -45
154 -52 299 -104 324 -116 15 -8 56 -22 91 -31 36 -9 97 -29 135 -44 162 -66
265 -103 350 -125 50 -13 128 -41 174 -61 47 -21 101 -39 120 -39 34 -1 36 0
35 32 -2 40 -416 465 -1261 1297 -296 291 -657 649 -802 795 -145 146 -550
553 -901 905 -862 867 -1620 1677 -1720 1839 -19 31 -50 80 -68 108 -18 29
-40 77 -48 107 -8 31 -24 83 -36 116 -21 54 -23 78 -23 255 l0 195 44 150 c24
83 52 166 61 185 10 19 27 70 39 113 12 43 32 99 45 125 13 26 26 61 30 77 4
17 21 57 38 90 17 33 39 84 49 113 10 29 27 65 37 80 11 15 27 49 38 77 10 27
32 71 49 96 16 26 50 84 75 128 25 45 63 110 85 145 22 35 49 79 60 97 63 104
84 134 225 328 33 45 67 95 76 110 8 14 29 45 47 67 18 23 50 68 72 99 195
282 460 558 795 831 103 84 300 228 336 247 17 9 50 32 73 51 24 20 49 36 57
36 8 0 32 16 54 36 22 20 59 46 82 57 29 15 44 30 46 45 5 32 -67 31 -125 -2
-23 -13 -59 -30 -80 -36 -21 -7 -67 -30 -102 -51 -36 -22 -69 -39 -74 -39 -6
0 -38 -18 -73 -40 -35 -22 -66 -40 -70 -40 -3 0 -26 -14 -51 -30 -25 -17 -66
-42 -92 -56 -54 -30 -144 -84 -186 -114 -16 -12 -77 -52 -135 -91 -58 -38
-136 -90 -174 -117 -38 -26 -90 -60 -116 -77 -136 -86 -221 -146 -295 -205
-23 -19 -78 -60 -122 -90 -43 -29 -95 -68 -115 -85 -92 -75 -113 -91 -152
-117 -82 -55 -230 -175 -312 -254 -28 -27 -129 -121 -225 -209 -290 -268 -456
-438 -634 -649 -22 -26 -76 -89 -120 -140 -44 -51 -97 -115 -117 -142 -75 -99
-103 -137 -123 -168 -11 -17 -35 -51 -52 -75 -18 -24 -33 -49 -33 -55 0 -6
-16 -33 -35 -60 -19 -27 -39 -65 -46 -85 -6 -20 -24 -56 -39 -81 -16 -25 -33
-65 -40 -90 -6 -25 -25 -85 -43 -135 l-32 -90 0 -215 c1 -205 2 -220 29 -315
16 -55 35 -129 42 -164 13 -57 79 -213 120 -281 56 -94 107 -220 88 -220 -18
0 -121 86 -178 149 -37 39 -95 100 -129 134 -64 64 -253 267 -323 347 -68 77
-164 199 -239 301 -16 23 -47 64 -68 93 -21 28 -72 101 -113 161 -41 61 -85
124 -97 142 -53 77 -68 101 -96 154 -16 30 -36 61 -45 68 -8 7 -27 43 -41 81
-14 38 -32 74 -40 80 -8 6 -21 35 -31 63 -9 29 -29 75 -44 102 -15 28 -37 84
-50 125 -12 41 -30 91 -40 110 -9 19 -25 67 -34 105 -9 39 -25 93 -35 120 -10
28 -29 100 -41 160 -12 61 -30 141 -40 178 -59 212 -61 722 -5 1152 57 442 65
1143 14 1268 -13 30 -21 33 -38 14z"/></g><g transform="translate(7.200000,2071.200000) scale(0.100000,-0.100000)" fill="#F5B000"><path d="M9355 19894 c-68 -4 -534 -47 -765 -70 -85 -8 -177 -22 -205 -30 -27
-8 -133 -26 -235 -39 -102 -14 -211 -34 -242 -45 -31 -11 -99 -27 -152 -35
-52 -8 -123 -24 -158 -36 -34 -11 -106 -29 -158 -39 -52 -10 -118 -27 -145
-38 -28 -11 -95 -29 -148 -41 -54 -12 -119 -32 -145 -45 -26 -13 -82 -31 -124
-40 -43 -8 -100 -27 -126 -40 -27 -14 -79 -32 -116 -40 -36 -9 -88 -27 -114
-40 -26 -13 -75 -31 -109 -40 -34 -8 -88 -29 -120 -44 -32 -16 -74 -33 -93
-37 -19 -4 -62 -22 -95 -40 -33 -18 -77 -36 -98 -40 -20 -4 -56 -20 -80 -36
-23 -16 -60 -34 -82 -40 -22 -6 -60 -23 -85 -39 -25 -16 -65 -33 -90 -40 -25
-6 -63 -24 -86 -40 -22 -16 -53 -32 -68 -36 -15 -3 -48 -21 -74 -39 -26 -17
-63 -37 -83 -44 -20 -6 -51 -23 -70 -37 -19 -14 -54 -34 -79 -45 -25 -11 -54
-28 -65 -39 -11 -10 -45 -29 -76 -43 -31 -14 -60 -30 -63 -36 -4 -6 -33 -24
-65 -40 -31 -16 -63 -37 -71 -46 -8 -10 -37 -27 -66 -40 -28 -12 -55 -28 -58
-34 -4 -6 -28 -23 -54 -36 -26 -14 -66 -40 -88 -58 -23 -17 -54 -40 -70 -50
-16 -9 -45 -28 -64 -42 -19 -14 -56 -39 -83 -57 -26 -18 -76 -53 -112 -78 -36
-25 -88 -61 -115 -80 -323 -223 -723 -571 -1126 -980 -310 -315 -323 -329
-445 -480 -220 -272 -676 -919 -831 -1180 -89 -151 -132 -225 -163 -284 -17
-34 -64 -124 -104 -201 -136 -260 -201 -390 -201 -404 0 -7 -15 -43 -34 -80
-18 -36 -39 -84 -46 -106 -7 -22 -28 -68 -47 -103 -18 -35 -33 -71 -33 -80 0
-8 -13 -39 -29 -67 -16 -29 -37 -79 -46 -111 -10 -33 -28 -80 -40 -106 -13
-25 -33 -81 -44 -123 -12 -42 -30 -93 -40 -113 -10 -20 -28 -72 -40 -115 -12
-43 -30 -96 -41 -117 -11 -22 -29 -76 -39 -122 -11 -46 -29 -110 -41 -143 -11
-33 -29 -100 -40 -150 -10 -49 -28 -117 -40 -150 -11 -33 -28 -103 -36 -155
-8 -51 -28 -139 -43 -195 -16 -55 -32 -125 -36 -155 -4 -30 -16 -93 -27 -140
-67 -290 -112 -647 -149 -1175 -30 -423 -34 -707 -15 -1015 9 -140 21 -338 27
-440 5 -102 17 -232 24 -290 31 -232 75 -502 104 -630 16 -74 35 -173 41 -220
7 -47 23 -116 36 -155 14 -38 31 -112 40 -163 8 -51 23 -117 34 -145 10 -29
30 -98 44 -154 14 -56 34 -119 44 -140 11 -21 25 -65 32 -98 6 -33 27 -91 45
-130 18 -38 36 -90 40 -115 3 -25 20 -73 36 -107 16 -34 35 -88 42 -120 8 -32
26 -81 40 -109 14 -28 33 -79 42 -113 9 -35 29 -86 45 -115 15 -28 31 -67 35
-86 4 -19 18 -52 32 -74 14 -21 33 -63 44 -93 10 -29 28 -67 39 -83 11 -16 29
-54 40 -85 10 -30 30 -70 43 -87 14 -18 30 -50 36 -70 7 -20 24 -54 37 -74 14
-20 34 -60 45 -88 10 -29 30 -67 44 -86 13 -18 30 -49 36 -69 7 -20 27 -58 46
-85 18 -26 33 -54 33 -60 0 -22 148 -276 193 -331 13 -16 30 -41 37 -55 7 -14
43 -69 79 -124 36 -54 75 -113 86 -130 39 -62 125 -192 163 -246 21 -30 53
-77 72 -105 59 -87 175 -235 373 -475 34 -41 71 -86 82 -99 11 -14 54 -63 95
-110 42 -47 108 -124 147 -171 118 -142 510 -541 693 -705 342 -307 641 -558
803 -675 26 -19 71 -52 100 -73 29 -20 75 -53 102 -72 28 -19 82 -57 120 -84
39 -28 96 -64 127 -81 31 -16 59 -34 63 -40 4 -6 27 -22 53 -36 26 -14 68 -40
93 -57 26 -18 61 -41 79 -52 19 -11 56 -34 84 -52 28 -18 73 -45 100 -60 26
-15 73 -45 105 -65 31 -21 61 -38 67 -38 7 0 34 -15 60 -33 27 -19 66 -39 86
-46 20 -7 54 -24 75 -39 21 -16 54 -34 73 -41 19 -8 55 -26 80 -41 25 -16 56
-31 70 -35 27 -7 176 -77 281 -131 37 -19 74 -34 82 -34 8 0 49 -18 91 -40 41
-22 82 -40 90 -40 8 0 43 -15 78 -34 35 -18 90 -41 123 -50 32 -10 80 -28 106
-41 25 -13 76 -31 113 -39 36 -9 84 -25 105 -36 21 -10 73 -28 114 -40 42 -11
99 -29 128 -40 29 -12 84 -28 123 -36 39 -8 96 -25 127 -39 31 -14 103 -35
159 -46 57 -12 130 -31 164 -44 33 -12 88 -28 121 -35 33 -6 115 -25 182 -41
67 -16 164 -36 215 -44 51 -9 165 -29 253 -45 136 -25 546 -86 710 -105 77 -8
688 -43 890 -50 340 -12 981 31 1350 89 88 13 218 32 290 41 71 9 172 26 225
40 52 13 131 29 174 35 44 7 111 20 150 30 39 11 123 30 187 44 64 13 134 33
155 44 21 11 75 27 119 37 44 9 102 28 128 42 27 13 82 31 123 38 41 8 100 28
131 44 32 15 82 34 111 40 29 6 75 22 102 36 27 14 80 32 116 41 37 8 92 28
123 43 31 16 72 32 91 36 33 6 121 45 265 116 33 16 86 38 118 49 32 10 71 28
87 40 16 11 48 27 72 36 23 8 54 22 67 32 28 19 136 76 221 117 30 14 66 32
80 40 14 8 52 28 85 46 33 17 69 39 80 49 11 10 40 26 65 36 25 9 59 27 75 39
17 12 50 33 75 47 78 43 302 183 374 232 37 25 82 54 100 62 17 9 49 29 71 45
77 57 140 98 186 123 25 13 52 32 59 41 8 9 38 32 67 51 30 19 56 41 60 49 3
9 24 27 48 40 34 21 65 58 65 80 0 19 -67 -1 -118 -35 -33 -22 -62 -40 -64
-40 -11 0 -184 -103 -203 -120 -11 -10 -42 -28 -70 -40 -27 -12 -57 -28 -66
-36 -21 -19 -124 -75 -209 -115 -36 -16 -76 -36 -90 -45 -14 -8 -54 -28 -88
-45 -35 -16 -76 -38 -91 -49 -15 -10 -52 -28 -82 -40 -30 -11 -74 -31 -99 -44
-25 -13 -65 -29 -90 -36 -25 -6 -68 -25 -96 -41 -28 -16 -59 -29 -67 -29 -9 0
-53 -20 -99 -43 -46 -24 -105 -49 -132 -56 -27 -6 -70 -23 -97 -37 -27 -13
-81 -31 -121 -39 -40 -9 -88 -25 -106 -36 -19 -11 -69 -29 -111 -40 -42 -11
-105 -31 -141 -44 -36 -13 -101 -32 -145 -43 -44 -10 -105 -29 -136 -40 -31
-12 -86 -26 -123 -32 -37 -6 -106 -24 -154 -40 -48 -16 -130 -37 -182 -45 -52
-9 -135 -27 -185 -40 -49 -13 -162 -33 -250 -44 -88 -12 -207 -30 -264 -41
-57 -11 -172 -24 -255 -30 -83 -6 -216 -15 -296 -20 -366 -25 -665 -32 -880
-21 -543 28 -741 44 -895 72 -60 11 -182 31 -270 44 -88 14 -205 36 -260 50
-55 13 -137 32 -182 40 -44 8 -107 25 -140 36 -32 11 -110 29 -174 39 -63 11
-142 31 -175 44 -32 13 -81 27 -109 31 -27 4 -89 23 -138 41 -48 19 -111 39
-140 45 -28 7 -77 24 -107 39 -30 15 -77 33 -105 40 -27 7 -70 23 -95 35 -25
12 -76 32 -115 44 -38 13 -84 31 -101 42 -18 11 -58 28 -90 39 -32 11 -73 29
-91 40 -19 11 -61 29 -95 40 -34 11 -82 33 -107 49 -25 16 -60 32 -78 36 -17
3 -51 20 -75 37 -23 17 -63 37 -87 45 -25 7 -61 24 -81 38 -19 13 -60 33 -92
45 -31 11 -61 27 -67 34 -7 8 -37 24 -69 37 -31 13 -80 37 -108 54 -29 16 -84
48 -123 70 -39 22 -102 59 -139 82 -37 23 -89 56 -117 73 -161 99 -295 188
-348 231 -18 14 -52 37 -77 52 -94 57 -379 280 -539 422 -75 66 -174 152 -221
191 -343 286 -801 758 -1115 1148 -85 105 -197 243 -249 306 -116 141 -315
435 -452 665 -26 44 -64 107 -84 140 -42 67 -251 422 -320 542 -68 119 -280
546 -280 564 0 10 -13 42 -29 73 -37 69 -106 229 -136 316 -43 122 -93 255
-115 305 -27 64 -102 289 -128 385 -11 41 -32 109 -45 150 -30 90 -69 247
-108 425 -15 72 -35 150 -43 174 -9 25 -25 94 -36 155 -11 61 -31 167 -45 236
-14 69 -32 190 -41 270 -8 80 -26 231 -39 335 -56 436 -58 1278 -5 1650 6 39
21 179 35 312 13 133 35 290 49 350 14 59 32 151 41 203 9 52 29 142 45 200
16 58 34 134 40 170 17 99 88 382 125 500 78 244 132 397 198 565 31 77 67
169 80 205 31 81 169 397 201 459 13 25 42 87 65 136 23 50 66 133 95 185 29
52 81 147 116 210 240 436 465 781 710 1088 36 45 85 109 110 143 25 34 72 94
106 133 33 39 93 114 133 166 140 182 625 657 931 910 57 47 137 114 179 150
76 65 107 90 207 165 29 22 78 60 109 85 100 80 169 128 225 160 30 17 69 41
86 53 18 12 45 30 60 40 16 9 63 39 104 67 41 27 98 61 125 76 28 14 57 32 65
39 15 14 90 55 195 109 33 17 74 40 90 52 17 11 56 31 87 43 32 13 62 29 69
37 6 7 36 23 67 34 30 12 68 32 83 45 16 13 52 31 81 40 29 10 67 28 84 40 16
13 54 30 83 39 29 8 76 29 104 45 29 16 68 32 87 36 19 4 58 20 85 35 28 16
82 36 120 46 39 9 88 27 110 40 22 12 72 30 110 40 39 9 91 28 117 41 26 13
80 30 120 39 40 8 100 28 133 43 33 16 90 34 127 40 38 7 101 25 140 41 40 15
111 33 158 40 47 6 132 24 190 40 58 16 161 36 230 45 69 10 169 28 224 41 54
13 162 30 240 39 77 9 233 28 346 43 200 26 218 27 740 27 456 0 551 -3 645
-17 61 -10 166 -22 235 -28 241 -21 476 -51 620 -80 80 -16 183 -34 230 -40
47 -6 123 -22 170 -35 47 -13 112 -29 145 -36 33 -6 89 -22 125 -36 36 -13 98
-31 138 -39 41 -8 106 -27 146 -43 39 -16 97 -34 129 -41 31 -6 82 -25 112
-41 30 -16 79 -34 108 -40 28 -6 75 -23 102 -39 28 -15 77 -35 110 -44 33 -10
76 -28 95 -41 19 -13 64 -32 100 -41 36 -9 83 -27 105 -39 22 -13 63 -30 91
-38 28 -8 75 -28 105 -45 30 -16 72 -35 94 -42 22 -7 56 -24 75 -36 19 -13 39
-24 45 -24 5 0 50 -20 100 -44 49 -24 106 -51 125 -60 19 -10 76 -39 125 -66
50 -27 117 -63 150 -79 33 -17 94 -54 135 -81 41 -27 104 -67 140 -90 154 -96
362 -240 465 -320 172 -134 349 -250 381 -250 57 0 -290 326 -501 470 -36 25
-89 64 -117 87 -28 23 -102 79 -165 125 -63 46 -140 102 -171 126 -104 77
-183 133 -342 243 -106 73 -122 84 -180 121 -30 19 -75 48 -99 64 -60 40 -137
88 -195 121 -26 15 -69 42 -95 59 -25 17 -66 38 -90 48 -24 9 -55 26 -68 36
-13 10 -48 26 -76 36 -29 9 -64 26 -80 36 -15 11 -54 30 -87 43 -33 13 -72 32
-87 43 -16 11 -51 26 -78 35 -28 8 -73 29 -100 46 -27 17 -57 31 -66 31 -10 0
-47 16 -82 35 -36 19 -93 41 -127 50 -34 9 -78 27 -99 40 -20 13 -62 30 -93
38 -32 8 -78 27 -104 41 -26 14 -74 33 -107 42 -32 8 -82 28 -111 44 -28 15
-76 33 -106 39 -30 7 -80 25 -110 40 -31 16 -95 36 -144 46 -50 9 -115 27
-145 40 -31 13 -92 28 -136 35 -44 7 -108 23 -142 35 -34 13 -112 31 -172 40
-61 9 -142 27 -181 40 -38 13 -113 29 -167 35 -54 6 -153 22 -219 36 -125 25
-203 34 -649 80 -250 26 -864 41 -1090 28z"/><path d="M9996 13313 c-81 -2 -145 -8 -153 -15 -26 -21 -15 -66 27 -112 23
-24 52 -72 65 -106 13 -34 29 -68 35 -75 5 -7 19 -37 29 -68 55 -160 269 -374
466 -466 90 -42 247 -81 328 -81 88 0 252 32 297 59 25 14 63 33 85 42 65 25
173 105 327 242 54 48 103 87 107 87 25 0 71 53 71 81 0 36 -11 46 -125 116
-49 31 -99 64 -110 73 -71 63 -234 140 -390 185 -100 29 -661 49 -1059 38z"/><path d="M12596 8454 c-9 -8 -16 -20 -16 -25 0 -10 203 -229 416 -449 55 -58
137 -143 180 -190 43 -46 156 -161 249 -255 198 -198 720 -737 815 -841 54
-60 497 -518 1066 -1104 67 -69 145 -152 174 -185 29 -33 141 -150 249 -260
208 -212 357 -368 431 -450 25 -28 110 -118 190 -200 80 -83 208 -217 285
-300 77 -82 256 -267 397 -412 142 -145 295 -305 339 -356 45 -51 182 -193
303 -317 122 -124 266 -275 322 -335 55 -61 235 -247 400 -415 165 -168 347
-356 405 -419 57 -63 121 -127 141 -144 l37 -30 1608 -4 c884 -2 1636 -4 1670
-5 135 -3 125 33 -57 219 -79 81 -318 326 -530 543 -213 217 -458 471 -546
564 -87 93 -245 255 -349 360 -105 105 -260 265 -345 356 -84 91 -246 260
-360 375 -114 116 -238 244 -275 285 -38 41 -182 190 -320 330 -138 140 -298
305 -355 365 -58 61 -168 175 -246 255 -77 80 -219 228 -314 330 -95 102 -268
282 -384 400 -116 118 -258 267 -316 330 -102 112 -239 256 -350 369 -30 31
-167 176 -304 321 -137 146 -306 324 -375 395 -239 247 -367 381 -578 605
-117 124 -234 243 -260 265 l-48 40 -1667 3 c-1508 2 -1668 1 -1682 -14z"/></g></g><rect x="610" y="120" width="7" height="380" fill="#0B132B" opacity="0.9"/><g transform="translate(680.00,250.00)" fill="#0B132B"><path transform="translate(0.00,0) scale(0.132000,-0.132000)" d="M469 0 233 310V0H62V702H233V394L467 702H668L396 358L678 0Z"/><path transform="translate(113.12,0) scale(0.132000,-0.132000)" d="M670 702V0H499V289H233V0H62V702H233V427H499V702Z"/><path transform="translate(230.74,0) scale(0.132000,-0.132000)" d="M33 353Q33 456 81.5 538.0Q130 620 212.5 666.0Q295 712 394 712Q493 712 575.5 666.0Q658 620 705.5 538.0Q753 456 753 353Q753 250 705.0 167.5Q657 85 575.0 39.0Q493 -7 394 -7Q295 -7 212.5 39.0Q130 85 81.5 167.5Q33 250 33 353ZM579 353Q579 446 528.5 501.5Q478 557 394 557Q309 557 258.5 502.0Q208 447 208 353Q208 260 258.5 204.5Q309 149 394 149Q478 149 528.5 205.0Q579 261 579 353Z"/><path transform="translate(355.61,0) scale(0.132000,-0.132000)" d="M690 0H519L233 433V0H62V702H233L519 267V702H690Z"/><path transform="translate(475.99,0) scale(0.132000,-0.132000)" d="M42 210H224Q228 171 251.0 150.5Q274 130 311 130Q349 130 371.0 147.5Q393 165 393 196Q393 222 375.5 239.0Q358 256 332.5 267.0Q307 278 260 292Q192 313 149.0 334.0Q106 355 75.0 396.0Q44 437 44 503Q44 601 115.0 656.5Q186 712 300 712Q416 712 487.0 656.5Q558 601 563 502H378Q376 536 353.0 555.5Q330 575 294 575Q263 575 244.0 558.5Q225 542 225 511Q225 477 257.0 458.0Q289 439 357 417Q425 394 467.5 373.0Q510 352 541.0 312.0Q572 272 572 209Q572 149 541.5 100.0Q511 51 453.0 22.0Q395 -7 316 -7Q239 -7 178.0 18.0Q117 43 80.5 92.0Q44 141 42 210Z"/><path transform="translate(578.29,0) scale(0.132000,-0.132000)" d="M230 702V282Q230 219 261.0 185.0Q292 151 352 151Q412 151 444.0 185.0Q476 219 476 282V702H647V283Q647 189 607.0 124.0Q567 59 499.5 26.0Q432 -7 349 -7Q266 -7 200.5 25.5Q135 58 97.0 123.5Q59 189 59 283V702Z"/></g><g transform="translate(871.50,370.00)" fill="#F5B000"><path transform="translate(0.00,0) scale(0.076000,-0.076000)" d="M544 698V585H358V0H218V585H32V698Z"/><path transform="translate(74.25,0) scale(0.076000,-0.076000)" d="M209 585V410H444V299H209V114H474V0H69V699H474V585Z"/><path transform="translate(145.08,0) scale(0.076000,-0.076000)" d="M389 707Q506 707 594.0 647.0Q682 587 717 481H556Q532 531 488.5 556.0Q445 581 388 581Q327 581 279.5 552.5Q232 524 205.5 472.0Q179 420 179 350Q179 281 205.5 228.5Q232 176 279.5 147.5Q327 119 388 119Q445 119 488.5 144.5Q532 170 556 220H717Q682 113 594.5 53.5Q507 -6 389 -6Q289 -6 208.5 39.5Q128 85 81.5 166.0Q35 247 35 350Q35 453 81.5 534.5Q128 616 208.5 661.5Q289 707 389 707Z"/><path transform="translate(233.85,0) scale(0.076000,-0.076000)" d="M648 698V0H508V297H209V0H69V698H209V411H508V698Z"/></g><rect x="721.5" y="347.2" width="110" height="8" fill="#F5B000"/><rect x="1199.8" y="347.2" width="110" height="8" fill="#F5B000"/><g transform="translate(657.44,460.00)" fill="#0B132B"><path transform="translate(0.00,0) scale(0.040000,-0.040000)" d="M58 192H180Q184 147 215.5 118.0Q247 89 304 89Q363 89 396.0 117.5Q429 146 429 191Q429 226 408.5 248.0Q388 270 357.5 282.0Q327 294 273 308Q205 326 162.5 344.5Q120 363 90.0 402.0Q60 441 60 506Q60 566 90.0 611.0Q120 656 174.0 680.0Q228 704 299 704Q400 704 464.5 653.5Q529 603 536 515H410Q407 553 374.0 580.0Q341 607 287 607Q238 607 207.0 582.0Q176 557 176 510Q176 478 195.5 457.5Q215 437 245.0 425.0Q275 413 327 399Q396 380 439.5 361.0Q483 342 513.5 302.5Q544 263 544 197Q544 144 515.5 97.0Q487 50 432.5 21.5Q378 -7 304 -7Q234 -7 178.0 17.5Q122 42 90.0 87.0Q58 132 58 192Z"/><path transform="translate(32.16,0) scale(0.040000,-0.040000)" d="M807 695V0H693V476L481 0H402L189 476V0H75V695H198L442 150L685 695Z"/><path transform="translate(75.44,0) scale(0.040000,-0.040000)" d="M494 142H203L153 0H34L283 696H415L664 0H544ZM462 235 349 558 235 235Z"/><path transform="translate(111.32,0) scale(0.040000,-0.040000)" d="M436 0 276 278H189V0H75V695H315Q395 695 450.5 667.0Q506 639 533.5 592.0Q561 545 561 487Q561 419 521.5 363.5Q482 308 400 288L572 0ZM189 369H315Q379 369 411.5 401.0Q444 433 444 487Q444 541 412.0 571.5Q380 602 315 602H189Z"/><path transform="translate(144.60,0) scale(0.040000,-0.040000)" d="M524 695V602H339V0H225V602H39V695Z"/><path transform="translate(195.16,0) scale(0.040000,-0.040000)" d="M524 695V602H339V0H225V602H39V695Z"/><path transform="translate(225.72,0) scale(0.040000,-0.040000)" d="M189 603V399H429V306H189V93H459V0H75V696H459V603Z"/><path transform="translate(254.68,0) scale(0.040000,-0.040000)" d="M392 704Q503 704 589.5 649.5Q676 595 715 495H578Q551 550 503.0 577.0Q455 604 392 604Q323 604 269.0 573.0Q215 542 184.5 484.0Q154 426 154 349Q154 272 184.5 214.0Q215 156 269.0 124.5Q323 93 392 93Q455 93 503.0 120.0Q551 147 578 202H715Q676 102 589.5 48.0Q503 -6 392 -6Q294 -6 213.0 39.5Q132 85 84.5 166.0Q37 247 37 349Q37 451 84.5 532.0Q132 613 213.5 658.5Q295 704 392 704Z"/><path transform="translate(293.60,0) scale(0.040000,-0.040000)" d="M630 695V0H516V304H189V0H75V695H189V397H516V695Z"/></g><g transform="translate(987.24,460.00)" fill="#F5B000"><path transform="translate(0.00,0) scale(0.040000,-0.040000)" d="M48 66Q48 97 69.0 118.0Q90 139 121 139Q151 139 172.0 118.0Q193 97 193 66Q193 35 172.0 14.0Q151 -7 121 -7Q90 -7 69.0 14.0Q48 35 48 66Z"/></g><g transform="translate(1064.88,460.00)" fill="#0B132B"><path transform="translate(0.00,0) scale(0.040000,-0.040000)" d="M581 187Q581 134 553.5 91.5Q526 49 474.0 24.5Q422 0 353 0H75V695H340Q411 695 462.0 671.0Q513 647 539.0 606.5Q565 566 565 516Q565 456 533.0 416.0Q501 376 447 357Q503 347 542.0 298.0Q581 249 581 187ZM189 403H330Q386 403 417.5 428.5Q449 454 449 502Q449 549 417.5 575.5Q386 602 330 602H189ZM467 199Q467 250 432.0 280.0Q397 310 339 310H189V93H343Q401 93 434.0 121.0Q467 149 467 199Z"/><path transform="translate(33.20,0) scale(0.040000,-0.040000)" d="M189 603V399H429V306H189V93H459V0H75V696H459V603Z"/><path transform="translate(62.16,0) scale(0.040000,-0.040000)" d="M524 695V602H339V0H225V602H39V695Z"/><path transform="translate(92.72,0) scale(0.040000,-0.040000)" d="M524 695V602H339V0H225V602H39V695Z"/><path transform="translate(123.28,0) scale(0.040000,-0.040000)" d="M189 603V399H429V306H189V93H459V0H75V696H459V603Z"/><path transform="translate(152.24,0) scale(0.040000,-0.040000)" d="M436 0 276 278H189V0H75V695H315Q395 695 450.5 667.0Q506 639 533.5 592.0Q561 545 561 487Q561 419 521.5 363.5Q482 308 400 288L572 0ZM189 369H315Q379 369 411.5 401.0Q444 433 444 487Q444 541 412.0 571.5Q380 602 315 602H189Z"/><path transform="translate(205.52,0) scale(0.040000,-0.040000)" d="M189 92H424V0H75V695H189Z"/><path transform="translate(231.28,0) scale(0.040000,-0.040000)" d="M189 695V0H75V695Z"/><path transform="translate(249.84,0) scale(0.040000,-0.040000)" d="M484 695V602H189V397H419V304H189V0H75V695Z"/><path transform="translate(278.44,0) scale(0.040000,-0.040000)" d="M189 603V399H429V306H189V93H459V0H75V696H459V603Z"/></g><g transform="translate(1372.28,460.00)" fill="#F5B000"><path transform="translate(0.00,0) scale(0.040000,-0.040000)" d="M48 66Q48 97 69.0 118.0Q90 139 121 139Q151 139 172.0 118.0Q193 97 193 66Q193 35 172.0 14.0Q151 -7 121 -7Q90 -7 69.0 14.0Q48 35 48 66Z"/></g></svg>